<svg aria-hidden="true" style="position: absolute; width: 0; height: 0; overflow: hidden;" version="1.1" xmlns="http://www.w3.org/2000/svg" xmlns:xlink="http://www.w3.org/1999/xlink">
<defs>
<symbol id="icon-left" viewBox="0 0 18 32">
<path fill="#a3a5a3" style="fill: var(--color1, #a3a5a3)" d="M16.289 32c-0.392-0.005-0.768-0.155-1.054-0.419l-14.801-14.584c-0.278-0.276-0.434-0.65-0.434-1.039s0.156-0.763 0.434-1.039l14.801-14.584c0.288-0.233 0.653-0.351 1.024-0.333s0.723 0.172 0.986 0.431c0.263 0.259 0.419 0.606 0.437 0.972s-0.102 0.726-0.338 1.009l-13.765 13.545 13.765 13.545c0.278 0.276 0.434 0.65 0.434 1.039s-0.156 0.763-0.434 1.039c-0.286 0.265-0.662 0.414-1.055 0.419z"></path>
</symbol>
<symbol id="icon-right" viewBox="0 0 18 32">
<path fill="#a3a5a3" style="fill: var(--color1, #a3a5a3)" d="M1.488 32c0.392-0.005 0.768-0.155 1.055-0.419l14.801-14.584c0.278-0.276 0.434-0.65 0.434-1.039s-0.156-0.763-0.434-1.039l-14.801-14.584c-0.288-0.233-0.653-0.351-1.024-0.333s-0.723 0.172-0.986 0.431c-0.263 0.259-0.419 0.606-0.437 0.972s0.102 0.726 0.338 1.009l13.765 13.545-13.765 13.545c-0.278 0.276-0.434 0.65-0.434 1.039s0.156 0.763 0.434 1.039c0.286 0.265 0.662 0.414 1.055 0.419z"></path>
</symbol>
<symbol id="icon-close" viewBox="0 0 32 32">
<path fill="none" stroke="#f7fbfb" style="stroke: var(--color2, #f7fbfb)" stroke-linejoin="round" stroke-linecap="round" stroke-miterlimit="4" stroke-width="2.9091" d="M30.545 30.545l-29.091-29.091M30.545 1.455l-29.091 29.091"></path>
</symbol>
<symbol id="icon-facebook" viewBox="0 0 32 32">
<path fill="#f7fbfb" style="fill: var(--color2, #f7fbfb)" d="M16.001 0.376c-8.627 0-15.686 7.043-15.686 15.718 0 7.843 5.741 14.353 13.239 15.529v-10.98h-3.984v-4.549h3.984v-3.467c0-3.937 2.337-6.102 5.929-6.102 1.71 0 3.498 0.298 3.498 0.298v3.875h-1.976c-1.945 0-2.557 1.208-2.557 2.447v2.949h4.361l-0.706 4.549h-3.655v10.98c3.696-0.584 7.062-2.47 9.49-5.318s3.757-6.47 3.749-10.212c0-8.675-7.059-15.718-15.686-15.718z"></path>
</symbol>
<symbol id="icon-instagram" viewBox="0 0 32 32">
<path fill="#f7fbfb" style="fill: var(--color2, #f7fbfb)" d="M9.412 0.314h13.176c5.020 0 9.098 4.078 9.098 9.098v13.176c0 2.413-0.959 4.727-2.665 6.433s-4.020 2.665-6.433 2.665h-13.176c-5.020 0-9.098-4.078-9.098-9.098v-13.176c0-2.413 0.959-4.727 2.665-6.433s4.020-2.665 6.433-2.665zM9.099 3.451c-1.498 0-2.934 0.595-3.993 1.654s-1.654 2.495-1.654 3.993v13.804c0 3.122 2.526 5.647 5.647 5.647h13.804c1.498 0 2.934-0.595 3.993-1.654s1.654-2.495 1.654-3.993v-13.804c0-3.122-2.525-5.647-5.647-5.647h-13.804zM24.236 5.804c0.52 0 1.019 0.207 1.386 0.574s0.574 0.866 0.574 1.386c0 0.52-0.207 1.019-0.574 1.387s-0.866 0.574-1.386 0.574c-0.52 0-1.019-0.207-1.387-0.574s-0.574-0.866-0.574-1.386c0-0.52 0.207-1.019 0.574-1.386s0.866-0.574 1.387-0.574zM16.001 8.157c2.080 0 4.075 0.826 5.546 2.297s2.297 3.466 2.297 5.546c0 2.080-0.826 4.075-2.297 5.546s-3.466 2.297-5.546 2.297c-2.080 0-4.075-0.826-5.546-2.297s-2.297-3.466-2.297-5.546c0-2.080 0.826-4.075 2.297-5.546s3.466-2.297 5.546-2.297zM16.001 11.294c-1.248 0-2.445 0.496-3.328 1.378s-1.378 2.080-1.378 3.328c0 1.248 0.496 2.445 1.378 3.328s2.080 1.378 3.328 1.378c1.248 0 2.445-0.496 3.328-1.378s1.378-2.080 1.378-3.328c0-1.248-0.496-2.445-1.378-3.328s-2.080-1.378-3.328-1.378z"></path>
</symbol>
<symbol id="icon-logo" viewBox="0 0 30 32">
<path fill="#f7fbfb" style="fill: var(--color2, #f7fbfb)" d="M27.573 6.092l-9.813-5.474c-0.714-0.398-1.655-0.618-2.649-0.618s-1.935 0.219-2.649 0.618l-9.813 5.474c-1.486 0.829-2.649 2.777-2.649 4.434v10.95c0 1.657 1.164 3.605 2.649 4.434l9.813 5.473c0.714 0.398 1.655 0.617 2.649 0.617s1.935-0.219 2.649-0.617l9.813-5.476c1.486-0.829 2.649-2.776 2.649-4.434v-10.951c0-1.653-1.164-3.602-2.649-4.431zM3.197 24.99c-1.138-0.635-2.1-2.245-2.1-3.515v-4.68c3.494-0.266 5.563 0.629 8.147 1.753 2.325 1.012 5.122 2.226 9.691 2.88-0.854 0.158-1.716 0.304-2.575 0.449-4.666 0.787-9.080 1.536-11.493 4.045l-1.671-0.932zM17.937 15.465c-2.109 0.81-4.855 1.536-8.916 1.825-1.796-0.771-3.505-1.422-5.744-1.573l7.461-7.209 7.199 6.957zM17.416 13.462l5.365-5.184 4.033 3.897c-2.321 0.204-3.946 0.999-5.747 1.885-0.628 0.309-1.295 0.636-2.038 0.96l-1.612-1.558zM29.125 21.475c0 1.271-0.962 2.88-2.101 3.515l-9.813 5.475c-0.54 0.302-1.305 0.477-2.1 0.477s-1.56-0.173-2.101-0.476l-7.169-4.001c2.213-2.112 6.347-2.809 10.708-3.545 4.916-0.828 9.976-1.683 12.576-4.75l-0.001 3.304zM29.125 16.189c-1.154 2.418-3.777 3.685-6.904 4.518-5.387-0.378-8.561-1.457-11.163-2.543 5.32-0.616 8.168-2.014 10.505-3.163 2.301-1.131 4.145-2.032 7.562-1.775v2.962zM29.125 12.164c-0.279-0.020-0.551-0.034-0.812-0.040l-5.143-4.97c-0.051-0.049-0.111-0.088-0.178-0.115s-0.138-0.040-0.21-0.040c-0.072 0-0.143 0.014-0.21 0.040s-0.127 0.066-0.178 0.115l-5.752 5.559-5.516-5.329c-0.051-0.049-0.111-0.088-0.178-0.115s-0.138-0.040-0.21-0.040c-0.072 0-0.143 0.014-0.21 0.040s-0.127 0.066-0.178 0.115l-8.603 8.314c-0.212 0.007-0.427 0.018-0.648 0.034v-5.205c0-1.271 0.962-2.881 2.1-3.516l9.813-5.475c0.542-0.302 1.307-0.476 2.101-0.476s1.56 0.173 2.101 0.476l9.813 5.475c1.139 0.635 2.101 2.245 2.101 3.516l-0.003 1.638z"></path>
</symbol>
<symbol id="icon-menu" viewBox="0 0 54 32">
<path fill="none" stroke="#f7fbfb" style="stroke: var(--color2, #f7fbfb)" stroke-linejoin="miter" stroke-linecap="round" stroke-miterlimit="10" stroke-width="5.0526" d="M3.368 3.368h47.158M3.368 16.842h47.158M3.368 28.632h47.158"></path>
</symbol>
<symbol id="icon-star_small" viewBox="0 0 34 32">
<path fill="#f7fbfb" style="fill: var(--color2, #f7fbfb)" d="M16.046 0.873c0.282-0.867 1.508-0.867 1.79 0l3.12 9.602c0.126 0.388 0.487 0.65 0.895 0.65h10.096c0.912 0 1.291 1.167 0.553 1.703l-8.168 5.934c-0.33 0.24-0.468 0.664-0.342 1.052l3.12 9.602c0.282 0.867-0.711 1.588-1.448 1.052l-8.168-5.934c-0.33-0.24-0.777-0.24-1.106 0l-8.168 5.934c-0.738 0.536-1.73-0.185-1.448-1.052l3.12-9.601c0.126-0.388-0.012-0.813-0.342-1.052l-8.168-5.934c-0.738-0.536-0.359-1.703 0.553-1.703h10.096c0.408 0 0.769-0.263 0.895-0.65l3.12-9.602z"></path>
</symbol>
<symbol id="icon-telegram" viewBox="0 0 32 32">
<path fill="#f7fbfb" style="fill: var(--color2, #f7fbfb)" d="M15.991 0.314c-3.102 0-6.135 0.92-8.715 2.644s-4.59 4.174-5.777 7.040c-1.187 2.866-1.498 6.020-0.893 9.063s2.099 5.838 4.293 8.032c2.194 2.194 4.989 3.688 8.032 4.293s6.197 0.295 9.063-0.893c2.866-1.187 5.316-3.198 7.040-5.777s2.644-5.612 2.644-8.715c0-2.060-0.406-4.1-1.194-6.003s-1.944-3.632-3.4-5.089c-1.457-1.457-3.186-2.612-5.089-3.4s-3.943-1.194-6.003-1.194zM20.98 24.082c-0.059 0.147-0.148 0.279-0.262 0.388s-0.25 0.193-0.399 0.245c-0.149 0.052-0.307 0.072-0.464 0.058s-0.31-0.061-0.447-0.139l-4.259-3.31-2.733 2.522c-0.063 0.047-0.138 0.077-0.216 0.088s-0.158 0.002-0.231-0.027l0.524-4.689 0.016 0.014 0.011-0.093c0 0 7.663-6.977 7.975-7.274 0.317-0.296 0.212-0.361 0.212-0.361 0.019-0.361-0.566 0-0.566 0l-10.154 6.532-4.227-1.44c0 0-0.649-0.232-0.711-0.745-0.064-0.508 0.731-0.784 0.731-0.784l16.811-6.679c0 0 1.382-0.615 1.382 0.405l-2.993 15.288z"></path>
</symbol>

<symbol id="icon-email" viewBox="0 0 41 32">
<path fill="#f7fbfb" style="fill: var(--color1, #f7fbfb)" d="M36.19 0.873h-31.651c-2.176 0-3.937 1.702-3.937 3.782l-0.020 22.691c0 2.080 1.78 3.782 3.956 3.782h31.651c2.176 0 3.956-1.702 3.956-3.782v-22.691c0-2.080-1.78-3.782-3.956-3.782zM35.398 8.909l-13.986 8.358c-0.633 0.378-1.464 0.378-2.097 0l-13.986-8.358c-0.198-0.106-0.372-0.25-0.511-0.423s-0.239-0.37-0.295-0.581c-0.056-0.211-0.067-0.43-0.032-0.645s0.115-0.421 0.236-0.605c0.121-0.184 0.279-0.343 0.466-0.468s0.398-0.211 0.621-0.255c0.223-0.044 0.453-0.044 0.675-0.001s0.434 0.13 0.621 0.253l13.254 7.923 13.254-7.923c0.187-0.124 0.398-0.21 0.621-0.253s0.453-0.043 0.675 0.001c0.223 0.044 0.434 0.131 0.621 0.255s0.345 0.283 0.466 0.468c0.121 0.184 0.201 0.39 0.236 0.605s0.024 0.434-0.032 0.645c-0.056 0.211-0.157 0.408-0.295 0.581s-0.312 0.316-0.511 0.423z"></path>
</symbol>
<symbol id="icon-phone" viewBox="0 0 19 32">
<path fill="#f7fbfb" style="fill: var(--color1, #f7fbfb)" d="M15.376 0.64h-11.553c-0.958 0-1.876 0.368-2.553 1.022s-1.057 1.543-1.057 2.468v23.738c0 0.926 0.38 1.814 1.057 2.468s1.595 1.022 2.553 1.022h11.553c0.958 0 1.876-0.368 2.553-1.022s1.057-1.543 1.057-2.468v-23.738c0-0.926-0.38-1.814-1.057-2.468s-1.595-1.022-2.553-1.022zM9.599 29.964c-1.199 0-2.166-0.936-2.166-2.095s0.968-2.095 2.166-2.095c1.199 0 2.166 0.936 2.166 2.095s-0.968 2.095-2.166 2.095zM16.098 24.378h-12.997v-19.549h12.997v19.549z"></path>
</symbol>
<symbol id="icon-place" viewBox="0 0 23 32">
<path fill="#f7fbfb" style="fill: var(--color1, #f7fbfb)" d="M11.429 0.457c-6.066 0-10.971 4.865-10.971 10.88 0 8.16 10.971 20.206 10.971 20.206s10.971-12.046 10.971-20.206c0-6.015-4.906-10.88-10.971-10.88zM11.429 15.223c-1.039 0-2.036-0.409-2.771-1.138s-1.148-1.717-1.148-2.748 0.413-2.019 1.148-2.748c0.735-0.729 1.732-1.138 2.771-1.138s2.036 0.409 2.771 1.138c0.735 0.729 1.148 1.717 1.148 2.748s-0.413 2.019-1.148 2.748c-0.735 0.729-1.732 1.138-2.771 1.138z"></path>
</symbol>
<symbol id="icon-close-2" viewBox="0 0 32 32">
<path d="M32 3.223l-3.223-3.223-12.777 12.777-12.777-12.777-3.223 3.223 12.777 12.777-12.777 12.777 3.223 3.223 12.777-12.777 12.777 12.777 3.223-3.223-12.777-12.777 12.777-12.777z"></path>
</symbol>
<symbol id="icon-Vector" viewBox="0 0 37 32">
<path  d="M35.333 2.667l-23.333 26.667-10-10"></path>
</symbol>
</defs>
</svg>
